<svg xmlns="http://www.w3.org/2000/svg" viewBox="0 -0.5 27 27" shape-rendering="crispEdges">
<metadata>Made with Pixels to Svg https://codepen.io/shshaw/pen/XbxvNj</metadata>
<path stroke="#212528" d="M2 0h23M1 1h2M24 1h2M0 2h2M25 2h2M0 3h1M26 3h1M0 4h1M26 4h1M0 5h1M26 5h1M0 6h1M26 6h1M0 7h1M26 7h1M0 8h1M26 8h1M0 9h1M26 9h1M0 10h1M26 10h1M0 11h1M26 11h1M0 12h1M26 12h1M0 13h1M26 13h1M0 14h1M26 14h1M0 15h1M26 15h1M0 16h1M26 16h1M0 17h1M26 17h1M0 18h1M26 18h1M0 19h1M26 19h1M0 20h1M26 20h1M0 21h1M26 21h1M0 22h1M26 22h1M0 23h1M26 23h1M0 24h2M25 24h2M1 25h2M24 25h2M2 26h23" />
<path stroke="#07080a" d="M3 1h21M2 2h2M23 2h2M1 3h2M24 3h2M1 4h1M25 4h1M1 5h1M25 5h1M1 6h1M7 6h5M15 6h5M25 6h1M1 7h1M6 7h2M11 7h2M14 7h2M19 7h2M25 7h1M1 8h1M6 8h1M12 8h3M20 8h1M25 8h1M1 9h1M5 9h2M13 9h1M20 9h2M25 9h1M1 10h1M5 10h1M13 10h1M21 10h1M25 10h1M1 11h1M4 11h2M13 11h1M21 11h2M25 11h1M1 12h1M4 12h1M13 12h1M22 12h1M25 12h1M1 13h1M3 13h2M12 13h3M22 13h2M25 13h1M1 14h1M3 14h1M12 14h1M14 14h1M23 14h1M25 14h1M1 15h1M3 15h1M12 15h1M14 15h1M23 15h1M25 15h1M1 16h1M3 16h1M12 16h1M14 16h1M23 16h1M25 16h1M1 17h1M3 17h1M11 17h2M14 17h2M23 17h1M25 17h1M1 18h1M3 18h1M10 18h2M15 18h2M23 18h1M25 18h1M1 19h1M3 19h2M9 19h2M16 19h2M22 19h2M25 19h1M1 20h1M4 20h6M17 20h6M25 20h1M1 21h1M25 21h1M1 22h1M25 22h1M1 23h2M24 23h2M2 24h2M23 24h2M3 25h21" />
<path stroke="rgba(10,14,16,0.5019607843137255)" d="M4 2h2M21 2h2M3 3h2M22 3h2M2 4h2M23 4h2M2 5h1M24 5h1M2 21h1M24 21h1M2 22h1M24 22h1M3 23h1M23 23h1M4 24h2M21 24h2" />
<path stroke="rgba(12,16,16,0.5019607843137255)" d="M6 2h6M15 2h6M5 3h4M18 3h4M4 4h3M20 4h3M3 5h3M21 5h3M2 6h3M22 6h3M2 7h2M23 7h2M2 8h2M23 8h2M2 9h1M24 9h1M2 10h1M24 10h1M24 11h1M2 16h1M24 16h1M2 17h1M24 17h1M2 18h1M24 18h1M2 19h1M24 19h1M2 20h2M23 20h2M3 21h2M21 21h3M3 22h4M20 22h4M4 23h4M19 23h4M6 24h5M16 24h5" />
<path stroke="rgba(12,16,18,0.5019607843137255)" d="M12 2h3M9 3h9M7 4h5M15 4h5M6 5h3M18 5h3M5 6h2M20 6h2M4 7h2M21 7h2M4 8h2M21 8h2M3 9h2M22 9h2M3 10h2M22 10h2M2 11h2M23 11h1M2 12h2M23 12h2M2 13h1M24 13h1M2 14h1M24 14h1M2 15h1M24 15h1M5 21h4M18 21h3M7 22h4M16 22h4M8 23h11M11 24h5" />
<path stroke="rgba(14,18,18,0.5019607843137255)" d="M12 4h3M9 5h9M10 20h1M16 20h1M9 21h9M11 22h5" />
<path stroke="rgba(14,18,20,0.5019607843137255)" d="M12 6h3M13 7h1M11 19h5M11 20h5" />
<path stroke="#391f21" d="M8 7h3M16 7h3M7 8h1M11 8h1M15 8h1M19 8h1M7 9h1M12 9h1M14 9h1M19 9h1M6 10h1M12 10h1M14 10h1M20 10h1M6 11h1M12 11h1M14 11h1M20 11h1M5 12h1M12 12h1M14 12h1M21 12h1M5 13h1M11 13h1M15 13h1M21 13h1M4 14h1M11 14h1M15 14h1M22 14h1M4 15h1M11 15h1M15 15h1M22 15h1M4 16h1M9 16h1M11 16h1M15 16h1M17 16h1M22 16h1M4 17h1M9 17h2M16 17h2M22 17h1M4 18h1M9 18h1M17 18h1M22 18h1M5 19h4M18 19h4" />
<path stroke="#8a4836" d="M8 8h1M18 8h1M7 10h1M19 10h1M7 11h3M17 11h3M6 12h1M10 12h2M15 12h2M20 12h1M10 13h1M16 13h1M5 14h1M21 14h1M9 15h1M17 15h1M8 18h1M18 18h1" />
<path stroke="#e07438" d="M9 8h2M16 8h2M8 9h4M15 9h4M8 10h4M15 10h4M10 11h2M15 11h2M7 12h3M17 12h3M6 13h4M17 13h4M6 14h5M16 14h5M5 15h4M10 15h1M16 15h1M18 15h4M5 16h4M10 16h1M16 16h1M18 16h4M5 17h4M18 17h4M5 18h3M19 18h3" />
<path stroke="rgba(18,22,22,0.5019607843137255)" d="M13 14h1" />
<path stroke="rgba(16,20,22,0.5019607843137255)" d="M13 15h1M13 16h1" />
<path stroke="rgba(16,20,20,0.5019607843137255)" d="M13 17h1M12 18h3" />
</svg>