<svg xmlns="http://www.w3.org/2000/svg" viewBox="0 -0.5 27 27" shape-rendering="crispEdges">
<metadata>Made with Pixels to Svg https://codepen.io/shshaw/pen/XbxvNj</metadata>
<path stroke="#212528" d="M2 0h23M1 1h2M24 1h2M0 2h2M25 2h2M0 3h1M26 3h1M0 4h1M26 4h1M0 5h1M26 5h1M0 6h1M26 6h1M0 7h1M26 7h1M0 8h1M26 8h1M0 9h1M26 9h1M0 10h1M26 10h1M0 11h1M26 11h1M0 12h1M26 12h1M0 13h1M26 13h1M0 14h1M26 14h1M0 15h1M26 15h1M0 16h1M26 16h1M0 17h1M26 17h1M0 18h1M26 18h1M0 19h1M26 19h1M0 20h1M26 20h1M0 21h1M26 21h1M0 22h1M26 22h1M0 23h1M26 23h1M0 24h2M25 24h2M1 25h2M24 25h2M2 26h23" />
<path stroke="#07080a" d="M3 1h21M2 2h2M23 2h2M1 3h2M10 3h6M24 3h2M1 4h1M8 4h3M15 4h3M25 4h1M1 5h1M7 5h2M17 5h2M25 5h1M1 6h1M6 6h2M18 6h2M25 6h1M1 7h1M6 7h1M19 7h1M25 7h1M1 8h1M5 8h2M19 8h2M25 8h1M1 9h1M5 9h1M20 9h1M25 9h1M1 10h1M5 10h1M20 10h1M25 10h1M1 11h1M5 11h1M20 11h1M25 11h1M1 12h1M5 12h1M20 12h1M25 12h1M1 13h1M5 13h1M20 13h1M25 13h1M1 14h1M5 14h1M20 14h1M25 14h1M1 15h1M5 15h1M20 15h1M25 15h1M1 16h1M5 16h1M20 16h1M25 16h1M1 17h1M5 17h1M20 17h1M25 17h1M1 18h1M5 18h1M20 18h1M25 18h1M1 19h1M5 19h1M20 19h1M25 19h1M1 20h1M5 20h2M19 20h2M25 20h1M1 21h1M6 21h2M18 21h2M25 21h1M1 22h1M7 22h2M11 22h4M17 22h2M25 22h1M1 23h2M8 23h4M14 23h4M24 23h2M2 24h2M23 24h2M3 25h21" />
<path stroke="rgba(10,14,16,0.5019607843137255)" d="M4 2h2M21 2h2M3 3h2M22 3h2M2 4h2M23 4h2M2 5h1M24 5h1M2 21h1M24 21h1M2 22h1M24 22h1M3 23h1M23 23h1M4 24h2M21 24h2" />
<path stroke="rgba(12,16,16,0.5019607843137255)" d="M6 2h6M15 2h6M5 3h4M18 3h4M4 4h3M20 4h3M3 5h3M21 5h3M2 6h3M22 6h3M2 7h2M23 7h2M2 8h2M23 8h2M2 9h1M24 9h1M2 10h1M24 10h1M24 11h1M2 16h1M24 16h1M2 17h1M24 17h1M2 18h1M24 18h1M2 19h2M23 19h2M2 20h3M22 20h3M3 21h2M21 21h3M3 22h4M20 22h4M4 23h4M19 23h4M6 24h5M16 24h5" />
<path stroke="rgba(12,16,18,0.5019607843137255)" d="M12 2h3M9 3h1M16 3h2M7 4h1M18 4h2M6 5h1M19 5h2M5 6h1M20 6h2M4 7h2M20 7h3M4 8h1M21 8h2M3 9h2M22 9h2M3 10h2M22 10h2M2 11h2M22 11h2M2 12h2M23 12h2M2 13h2M23 13h2M2 14h2M23 14h2M2 15h2M23 15h2M3 16h2M22 16h2M3 17h2M22 17h2M3 18h2M21 18h3M4 19h1M21 19h2M21 20h1M5 21h1M20 21h1M19 22h1M12 23h2M18 23h1M11 24h5" />
<path stroke="#272727" d="M11 4h4M9 5h2M15 5h2M8 6h1M17 6h1M7 7h1M18 7h1M7 8h1M18 8h1M6 9h1M19 9h1M6 10h1M19 10h1M6 11h1M19 11h1M6 12h1M9 12h2M15 12h2M19 12h1M6 13h1M9 13h3M14 13h3M19 13h1M6 14h1M10 14h2M14 14h2M19 14h1M6 15h1M10 15h2M14 15h2M19 15h1M6 16h1M10 16h6M19 16h1M6 17h1M11 17h4M19 17h1M6 18h1M11 18h4M19 18h1M6 19h1M11 19h4M19 19h1M7 20h1M11 20h4M18 20h1M8 21h1M11 21h4M17 21h1M9 22h2M15 22h2" />
<path stroke="#5d5d5d" d="M11 5h1M14 5h1M9 6h1M11 6h1M14 6h1M16 6h1M11 7h1M14 7h1M11 8h1M14 8h1M7 9h1M11 9h1M14 9h1M18 9h1M7 10h5M14 10h5M7 11h1M11 11h1M14 11h1M18 11h1M11 12h1M14 12h1M9 14h1M16 14h1M7 16h1M18 16h1M7 17h1M10 17h1M15 17h1M18 17h1M7 18h2M17 18h2M7 19h2M17 19h2M8 20h1M17 20h1M9 21h1M16 21h1" />
<path stroke="#858585" d="M12 5h2M10 6h1M12 6h2M15 6h1M8 7h3M12 7h2M15 7h3M8 8h3M12 8h2M15 8h3M8 9h3M12 9h2M15 9h3M12 10h2M8 11h3M12 11h2M15 11h3M7 12h2M12 12h2M17 12h2M7 13h2M12 13h2M17 13h2M7 14h2M12 14h2M17 14h2M7 15h3M12 15h2M16 15h3M8 16h2M16 16h2M8 17h2M16 17h2M9 18h2M15 18h2M9 19h2M15 19h2M9 20h2M15 20h2M10 21h1M15 21h1" />
<path stroke="rgba(14,18,18,0.5019607843137255)" d="M21 9h1M21 10h1M4 11h1M21 11h1M4 12h1M21 12h2M4 13h1M21 13h2M4 14h1M21 14h2M4 15h1M21 15h2M21 16h1M21 17h1" />
</svg>