<svg xmlns="http://www.w3.org/2000/svg" viewBox="0 -0.5 27 27" shape-rendering="crispEdges">
<metadata>Made with Pixels to Svg https://codepen.io/shshaw/pen/XbxvNj</metadata>
<path stroke="#212528" d="M2 0h23M1 1h2M24 1h2M0 2h2M25 2h2M0 3h1M26 3h1M0 4h1M26 4h1M0 5h1M26 5h1M0 6h1M26 6h1M0 7h1M26 7h1M0 8h1M26 8h1M0 9h1M26 9h1M0 10h1M26 10h1M0 11h1M26 11h1M0 12h1M26 12h1M0 13h1M26 13h1M0 14h1M26 14h1M0 15h1M26 15h1M0 16h1M26 16h1M0 17h1M26 17h1M0 18h1M26 18h1M0 19h1M26 19h1M0 20h1M26 20h1M0 21h1M26 21h1M0 22h1M26 22h1M0 23h1M26 23h1M0 24h2M25 24h2M1 25h2M24 25h2M2 26h23" />
<path stroke="#07080a" d="M3 1h21M2 2h2M23 2h2M1 3h2M14 3h4M24 3h2M1 4h1M13 4h2M17 4h1M25 4h1M1 5h1M12 5h2M17 5h1M25 5h1M1 6h1M12 6h1M17 6h1M25 6h1M1 7h1M11 7h2M16 7h2M25 7h1M1 8h1M11 8h1M16 8h1M21 8h5M1 9h1M11 9h1M15 9h2M19 9h3M24 9h2M1 10h1M11 10h1M15 10h1M17 10h3M24 10h2M1 11h1M11 11h1M15 11h3M24 11h2M1 12h1M7 12h5M23 12h3M1 13h1M6 13h2M21 13h3M25 13h1M1 14h1M5 14h2M19 14h3M25 14h1M1 15h1M5 15h1M14 15h6M25 15h1M1 16h1M4 16h2M14 16h1M25 16h1M1 17h1M4 17h1M14 17h1M25 17h1M1 18h1M3 18h2M14 18h1M25 18h1M1 19h1M3 19h1M12 19h3M25 19h1M1 20h1M3 20h1M10 20h3M25 20h1M1 21h1M3 21h1M8 21h3M25 21h1M1 22h1M3 22h6M25 22h1M1 23h2M24 23h2M2 24h2M23 24h2M3 25h21" />
<path stroke="rgba(10,14,16,0.5019607843137255)" d="M4 2h2M21 2h2M3 3h2M22 3h2M2 4h2M23 4h2M2 5h1M24 5h1M2 21h1M24 21h1M2 22h1M24 22h1M3 23h1M23 23h1M4 24h2M21 24h2" />
<path stroke="rgba(12,16,16,0.5019607843137255)" d="M6 2h6M15 2h6M5 3h4M18 3h4M4 4h3M20 4h3M3 5h3M21 5h3M2 6h3M22 6h3M2 7h2M23 7h2M2 8h2M2 9h1M2 10h1M2 16h1M24 16h1M2 17h1M24 17h1M2 18h1M24 18h1M2 19h1M23 19h2M2 20h1M22 20h3M21 21h3M20 22h4M4 23h4M19 23h4M6 24h5M16 24h5" />
<path stroke="rgba(12,16,18,0.5019607843137255)" d="M12 2h3M9 3h5M7 4h5M18 4h2M6 5h3M18 5h3M5 6h3M19 6h3M4 7h3M20 7h3M4 8h2M3 9h2M3 10h2M2 11h2M2 12h2M2 13h2M24 13h1M2 14h2M23 14h2M2 15h2M23 15h2M3 16h1M22 16h2M3 17h1M22 17h2M21 18h3M21 19h2M20 20h2M18 21h3M9 22h2M16 22h4M8 23h11M11 24h5" />
<path stroke="rgba(14,18,18,0.5019607843137255)" d="M12 4h1M9 5h3M8 6h4M18 6h1M7 7h3M18 7h2M6 8h2M19 8h2M5 9h3M5 10h2M4 11h3M4 12h2M4 13h2M4 14h1M22 14h1M4 15h1M20 15h3M20 16h2M20 17h2M19 18h2M18 19h3M16 20h4M11 21h7M11 22h5" />
<path stroke="#391f21" d="M15 4h2M14 5h1M16 5h1M13 6h1M16 6h1M13 7h1M15 7h1M12 8h1M15 8h1M12 9h1M14 9h1M22 9h2M12 10h1M14 10h1M20 10h2M23 10h1M12 11h1M14 11h1M18 11h2M23 11h1M12 12h1M15 12h3M21 12h2M13 13h1M19 13h2M14 14h5" />
<path stroke="#e07438" d="M15 5h1M14 6h1M14 7h1M13 8h1M13 9h1M13 10h1M22 10h1M13 11h1M20 11h2M13 12h1M18 12h2M14 13h4" />
<path stroke="#8a4836" d="M15 6h1M14 8h1M22 11h1M14 12h1M20 12h1M18 13h1" />
<path stroke="rgba(14,18,20,0.5019607843137255)" d="M10 7h1M8 8h3M17 8h2M8 9h3M17 9h2M7 10h3M7 11h2M6 12h1M18 16h2M17 17h3M15 18h4M15 19h3M13 20h3" />
<path stroke="rgba(16,20,20,0.5019607843137255)" d="M10 10h1M16 10h1M9 11h2M15 16h3M15 17h2" />
<path stroke="#03193f" d="M8 13h5M7 14h1M13 14h1M6 15h1M13 15h1M6 16h1M13 16h1M5 17h1M13 17h1M5 18h1M12 18h2M4 19h1M10 19h2M4 20h1M8 20h2M4 21h4" />
<path stroke="#db3ffd" d="M8 14h1M11 14h1M11 15h2M7 16h1M10 16h2M7 17h4M12 17h1M6 18h4M11 18h1M6 19h3" />
<path stroke="#f389f5" d="M9 14h2M8 15h3M8 16h2M12 16h1M11 17h1M10 18h1" />
<path stroke="#7a09fa" d="M12 14h1M7 15h1M6 17h1M5 19h1M9 19h1M5 20h3" />
</svg>