<svg xmlns="http://www.w3.org/2000/svg" viewBox="0 -0.5 27 27" shape-rendering="crispEdges">
<metadata>Made with Pixels to Svg https://codepen.io/shshaw/pen/XbxvNj</metadata>
<path stroke="#212528" d="M2 0h23M1 1h2M24 1h2M0 2h2M25 2h2M0 3h1M26 3h1M0 4h1M26 4h1M0 5h1M26 5h1M0 6h1M26 6h1M0 7h1M26 7h1M0 8h1M26 8h1M0 9h1M26 9h1M0 10h1M26 10h1M0 11h1M26 11h1M0 12h1M26 12h1M0 13h1M26 13h1M0 14h1M26 14h1M0 15h1M26 15h1M0 16h1M26 16h1M0 17h1M26 17h1M0 18h1M26 18h1M0 19h1M26 19h1M0 20h1M26 20h1M0 21h1M26 21h1M0 22h1M26 22h1M0 23h1M26 23h1M0 24h2M25 24h2M1 25h2M24 25h2M2 26h23" />
<path stroke="#07080a" d="M3 1h21M2 2h2M23 2h2M1 3h2M24 3h2M1 4h1M25 4h1M1 5h1M25 5h1M1 6h1M9 6h9M25 6h1M1 7h1M8 7h2M17 7h2M25 7h1M1 8h1M7 8h2M18 8h2M25 8h1M1 9h1M6 9h2M19 9h2M25 9h1M1 10h1M6 10h1M20 10h1M25 10h1M1 11h1M6 11h1M12 11h3M20 11h1M25 11h1M1 12h1M6 12h1M11 12h2M14 12h2M20 12h1M25 12h1M1 13h1M6 13h1M11 13h1M15 13h1M20 13h1M25 13h1M1 14h1M6 14h1M11 14h2M14 14h2M20 14h1M25 14h1M1 15h1M6 15h1M12 15h3M20 15h1M25 15h1M1 16h1M6 16h1M20 16h1M25 16h1M1 17h1M6 17h2M19 17h2M25 17h1M1 18h1M7 18h2M18 18h2M25 18h1M1 19h1M8 19h2M17 19h2M25 19h1M1 20h1M9 20h9M25 20h1M1 21h1M25 21h1M1 22h1M25 22h1M1 23h2M24 23h2M2 24h2M23 24h2M3 25h21" />
<path stroke="rgba(10,14,16,0.5019607843137255)" d="M4 2h2M21 2h2M3 3h2M22 3h2M2 4h2M23 4h2M2 5h1M24 5h1M2 21h1M24 21h1M2 22h1M24 22h1M3 23h1M23 23h1M4 24h2M21 24h2" />
<path stroke="rgba(12,16,16,0.5019607843137255)" d="M6 2h6M15 2h6M5 3h4M18 3h4M4 4h3M20 4h3M3 5h3M21 5h3M2 6h3M22 6h3M2 7h2M23 7h2M2 8h2M23 8h2M2 9h1M24 9h1M2 10h1M24 10h1M24 11h1M2 16h1M24 16h1M2 17h1M24 17h1M2 18h1M24 18h1M2 19h2M23 19h2M2 20h3M22 20h3M3 21h2M21 21h3M3 22h4M20 22h4M4 23h4M19 23h4M6 24h5M16 24h5" />
<path stroke="rgba(12,16,18,0.5019607843137255)" d="M12 2h3M9 3h9M7 4h5M15 4h5M6 5h3M18 5h3M5 6h3M19 6h3M4 7h3M20 7h3M4 8h2M21 8h2M3 9h2M22 9h2M3 10h2M22 10h2M2 11h2M22 11h2M2 12h2M23 12h2M2 13h2M23 13h2M2 14h2M23 14h2M2 15h2M23 15h2M3 16h2M22 16h2M3 17h2M22 17h2M3 18h3M21 18h3M4 19h2M21 19h2M5 20h2M20 20h2M5 21h4M18 21h3M7 22h4M16 22h4M8 23h11M11 24h5" />
<path stroke="rgba(14,18,18,0.5019607843137255)" d="M12 4h3M9 5h9M8 6h1M18 6h1M7 7h1M19 7h1M6 8h1M20 8h1M5 9h1M21 9h1M5 10h1M21 10h1M4 11h2M21 11h1M4 12h2M21 12h2M4 13h2M21 13h2M4 14h2M21 14h2M4 15h2M21 15h2M5 16h1M21 16h1M5 17h1M21 17h1M6 18h1M20 18h1M6 19h2M19 19h2M7 20h2M18 20h2M9 21h9M11 22h5" />
<path stroke="#571c27" d="M10 7h7M9 8h1M17 8h1M8 9h1M18 9h1M7 10h1M12 10h3M19 10h1M7 11h1M11 11h1M15 11h1M19 11h1M7 12h1M10 12h1M16 12h1M19 12h1M7 13h1M10 13h1M16 13h1M19 13h1M7 14h1M10 14h1M16 14h1M19 14h1M7 15h1M11 15h1M15 15h1M19 15h1M7 16h1M12 16h3M19 16h1M8 17h1M18 17h1M9 18h1M17 18h1M10 19h7" />
<path stroke="#e07438" d="M10 8h1M16 8h1M8 10h1M11 10h1M15 10h1M18 10h1M10 11h1M16 11h1M10 15h1M16 15h1M8 16h1M11 16h1M15 16h1M18 16h1M10 18h1M16 18h1" />
<path stroke="#f9a31b" d="M11 8h5M9 9h9M9 10h2M16 10h2M8 11h2M17 11h2M8 12h2M17 12h2M8 13h2M17 13h2M8 14h2M17 14h2M8 15h2M17 15h2M9 16h2M16 16h2M9 17h9M11 18h5" />
<path stroke="rgba(16,20,22,0.5019607843137255)" d="M13 12h1" />
<path stroke="rgba(18,22,22,0.5019607843137255)" d="M12 13h3M13 14h1" />
</svg>