<svg xmlns="http://www.w3.org/2000/svg" viewBox="0 -0.5 27 27" shape-rendering="crispEdges">
<metadata>Made with Pixels to Svg https://codepen.io/shshaw/pen/XbxvNj</metadata>
<path stroke="#212528" d="M2 0h23M1 1h2M24 1h2M0 2h2M25 2h2M0 3h1M26 3h1M0 4h1M26 4h1M0 5h1M26 5h1M0 6h1M26 6h1M0 7h1M26 7h1M0 8h1M26 8h1M0 9h1M26 9h1M0 10h1M26 10h1M0 11h1M26 11h1M0 12h1M26 12h1M0 13h1M26 13h1M0 14h1M26 14h1M0 15h1M26 15h1M0 16h1M26 16h1M0 17h1M26 17h1M0 18h1M26 18h1M0 19h1M26 19h1M0 20h1M26 20h1M0 21h1M26 21h1M0 22h1M26 22h1M0 23h1M26 23h1M0 24h2M25 24h2M1 25h2M24 25h2M2 26h23" />
<path stroke="#07080a" d="M3 1h21M2 2h2M23 2h2M1 3h2M24 3h2M1 4h1M25 4h1M1 5h1M6 5h5M12 5h7M25 5h1M1 6h1M6 6h1M10 6h3M18 6h2M25 6h1M1 7h1M4 7h3M11 7h2M19 7h2M25 7h1M1 8h1M4 8h1M12 8h2M20 8h2M25 8h1M1 9h1M4 9h1M12 9h3M21 9h2M25 9h1M1 10h1M4 10h1M12 10h3M22 10h2M25 10h1M1 11h1M4 11h2M13 11h1M23 11h1M25 11h1M1 12h1M5 12h2M22 12h2M25 12h1M1 13h1M6 13h4M17 13h2M21 13h2M25 13h1M1 14h1M9 14h2M16 14h6M25 14h1M1 15h1M8 15h2M17 15h3M25 15h1M1 16h1M7 16h2M19 16h2M25 16h1M1 17h1M6 17h2M13 17h1M20 17h2M25 17h1M1 18h1M5 18h2M12 18h3M21 18h1M25 18h1M1 19h1M5 19h1M11 19h2M14 19h1M21 19h1M25 19h1M1 20h1M5 20h1M10 20h2M14 20h2M20 20h2M25 20h1M1 21h1M5 21h2M9 21h2M15 21h2M19 21h2M25 21h1M1 22h1M6 22h4M16 22h4M25 22h1M1 23h2M24 23h2M2 24h2M23 24h2M3 25h21" />
<path stroke="rgba(10,14,16,0.5019607843137255)" d="M4 2h2M21 2h2M3 3h2M22 3h2M2 4h2M23 4h2M2 5h1M24 5h1M2 21h1M24 21h1M2 22h1M24 22h1M3 23h1M23 23h1M4 24h2M21 24h2" />
<path stroke="rgba(12,16,16,0.5019607843137255)" d="M6 2h6M15 2h6M5 3h4M18 3h4M4 4h3M20 4h3M3 5h3M21 5h3M2 6h3M22 6h3M2 7h2M23 7h2M2 8h2M23 8h2M2 9h1M24 9h1M2 10h1M24 10h1M24 11h1M2 16h1M24 16h1M2 17h1M24 17h1M2 18h1M24 18h1M2 19h2M23 19h2M2 20h3M22 20h3M3 21h2M21 21h3M3 22h3M20 22h4M4 23h4M19 23h4M6 24h5M16 24h5" />
<path stroke="rgba(12,16,18,0.5019607843137255)" d="M12 2h3M9 3h9M7 4h5M15 4h5M19 5h2M5 6h1M20 6h2M21 7h2M22 8h1M3 9h1M23 9h1M3 10h1M2 11h2M2 12h2M24 12h1M2 13h2M23 13h2M2 14h2M23 14h2M2 15h2M23 15h2M3 16h2M22 16h2M3 17h2M22 17h2M3 18h2M22 18h2M4 19h1M22 19h1M10 22h1M8 23h11M11 24h5" />
<path stroke="rgba(14,18,18,0.5019607843137255)" d="M12 4h3M11 5h1M4 12h1M4 13h2M4 14h2M22 14h1M4 15h2M20 15h3M5 16h2M21 16h1M5 17h1M11 21h4M11 22h5" />
<path stroke="#272727" d="M7 6h3M13 6h5M7 7h1M10 7h1M13 7h1M18 7h1M5 8h4M11 8h1M14 8h1M19 8h1M5 9h1M7 9h2M11 9h1M15 9h1M20 9h1M5 10h1M11 10h1M16 10h1M21 10h1M6 11h1M12 11h1M17 11h1M22 11h1M7 12h3M18 12h1M21 12h1M10 13h1M19 13h2M16 15h1M17 16h2M14 17h1M19 17h1M15 18h1M17 18h2M20 18h1M15 19h1M17 19h2M20 19h1M16 20h1M19 20h1M17 21h2" />
<path stroke="#858585" d="M8 7h2M14 7h4M9 8h1M15 8h2M6 9h1M9 9h2M6 10h5M20 10h1M8 11h2M19 11h3M19 12h2M17 17h2M16 18h1M19 18h1M16 19h1M19 19h1M17 20h2" />
<path stroke="#5d5d5d" d="M10 8h1M17 8h2M16 9h4M17 10h3M7 11h1M10 11h2M18 11h1M10 12h3M11 13h1M15 15h1M14 16h3M15 17h2" />
<path stroke="#391f21" d="M15 10h1M14 11h1M13 12h1M17 12h1M12 13h1M16 13h1M11 14h1M15 14h1M10 15h1M14 15h1M9 16h1M13 16h1M8 17h1M12 17h1M7 18h1M11 18h1M6 19h1M10 19h1M6 20h1M9 20h1M7 21h2" />
<path stroke="#8a4836" d="M15 11h2M16 12h1M7 19h1M7 20h2" />
<path stroke="#e07438" d="M14 12h2M13 13h3M12 14h3M11 15h3M10 16h3M9 17h3M8 18h3M8 19h2" />
<path stroke="rgba(14,18,20,0.5019607843137255)" d="M6 14h2M6 15h2M13 19h1M12 20h2" />
<path stroke="rgba(16,20,20,0.5019607843137255)" d="M8 14h1" />
</svg>