<svg xmlns="http://www.w3.org/2000/svg" viewBox="0 -0.5 27 27" shape-rendering="crispEdges">
<metadata>Made with Pixels to Svg https://codepen.io/shshaw/pen/XbxvNj</metadata>
<path stroke="#212528" d="M2 0h23M1 1h2M24 1h2M0 2h2M25 2h2M0 3h1M26 3h1M0 4h1M26 4h1M0 5h1M26 5h1M0 6h1M26 6h1M0 7h1M26 7h1M0 8h1M26 8h1M0 9h1M26 9h1M0 10h1M26 10h1M0 11h1M26 11h1M0 12h1M26 12h1M0 13h1M26 13h1M0 14h1M26 14h1M0 15h1M26 15h1M0 16h1M26 16h1M0 17h1M26 17h1M0 18h1M26 18h1M0 19h1M26 19h1M0 20h1M26 20h1M0 21h1M26 21h1M0 22h1M26 22h1M0 23h1M26 23h1M0 24h2M25 24h2M1 25h2M24 25h2M2 26h23" />
<path stroke="#07080a" d="M3 1h21M2 2h2M23 2h2M1 3h2M8 3h11M24 3h2M1 4h1M6 4h3M18 4h3M25 4h1M1 5h1M4 5h3M20 5h3M25 5h1M1 6h1M3 6h2M22 6h2M25 6h1M1 7h1M3 7h1M23 7h1M25 7h1M1 8h1M3 8h1M23 8h1M25 8h1M1 9h1M3 9h1M23 9h1M25 9h1M1 10h1M3 10h2M22 10h2M25 10h1M1 11h1M4 11h1M22 11h1M25 11h1M1 12h1M4 12h2M21 12h2M25 12h1M1 13h1M5 13h1M21 13h1M25 13h1M1 14h1M5 14h2M20 14h2M25 14h1M1 15h1M6 15h1M20 15h1M25 15h1M1 16h1M6 16h1M20 16h1M25 16h1M1 17h1M6 17h1M20 17h1M25 17h1M1 18h1M6 18h1M20 18h1M25 18h1M1 19h1M6 19h1M20 19h1M25 19h1M1 20h1M6 20h1M20 20h1M25 20h1M1 21h1M6 21h2M19 21h2M25 21h1M1 22h1M7 22h2M18 22h2M25 22h1M1 23h2M8 23h11M24 23h2M2 24h2M23 24h2M3 25h21" />
<path stroke="rgba(10,14,16,0.5019607843137255)" d="M4 2h2M21 2h2M3 3h2M22 3h2M2 4h2M23 4h2M2 5h1M24 5h1M2 21h1M24 21h1M2 22h1M24 22h1M3 23h1M23 23h1M4 24h2M21 24h2" />
<path stroke="rgba(12,16,16,0.5019607843137255)" d="M6 2h6M15 2h6M5 3h3M19 3h3M4 4h2M21 4h2M3 5h1M23 5h1M2 6h1M24 6h1M2 7h1M24 7h1M2 8h1M24 8h1M2 9h1M24 9h1M2 10h1M24 10h1M24 11h1M2 16h1M24 16h1M2 17h1M24 17h1M2 18h1M24 18h1M2 19h2M23 19h2M2 20h3M22 20h3M3 21h2M21 21h3M3 22h4M20 22h4M4 23h4M19 23h4M6 24h5M16 24h5" />
<path stroke="rgba(12,16,18,0.5019607843137255)" d="M12 2h3M2 11h2M23 11h1M2 12h2M23 12h2M2 13h2M23 13h2M2 14h2M23 14h2M2 15h2M23 15h2M3 16h2M22 16h2M3 17h2M22 17h2M3 18h3M21 18h3M4 19h2M21 19h2M5 20h1M21 20h1M5 21h1M11 24h5" />
<path stroke="#272727" d="M9 4h9M7 5h2M18 5h2M5 6h2M10 6h7M20 6h2M4 7h1M10 7h7M22 7h1M4 8h1M11 8h5M22 8h1M4 9h1M22 9h1M5 10h1M21 10h1M5 11h1M21 11h1M6 12h1M20 12h1M6 13h1M20 13h1M7 14h1M19 14h1M7 15h1M19 15h1M7 16h1M19 16h1M7 17h1M19 17h1M7 18h1M19 18h1M7 19h1M19 19h1M7 20h1M19 20h1M8 21h1M18 21h1M9 22h9" />
<path stroke="#5d5d5d" d="M9 5h1M17 5h1M5 7h1M21 7h1M10 8h1M16 8h1M13 9h1M13 10h1M6 11h1M13 11h1M20 11h1M7 12h1M13 12h1M19 12h1M7 13h13M8 14h3M16 14h3M8 15h2M17 15h2M8 16h2M17 16h2M8 17h1M18 17h1M8 18h1M18 18h1M8 19h1M18 19h1M8 20h1M18 20h1M9 21h1M17 21h1" />
<path stroke="#858585" d="M10 5h7M7 6h3M17 6h3M6 7h4M17 7h4M5 8h5M17 8h5M5 9h8M14 9h8M6 10h7M14 10h7M7 11h6M14 11h6M8 12h5M14 12h5M11 14h5M10 15h7M10 16h7M9 17h9M9 18h9M9 19h9M9 20h9M10 21h7" />
<path stroke="rgba(14,18,18,0.5019607843137255)" d="M4 13h1M22 13h1M4 14h1M22 14h1M4 15h2M21 15h2M5 16h1M21 16h1M5 17h1M21 17h1" />
</svg>