<svg xmlns="http://www.w3.org/2000/svg" viewBox="0 -0.5 27 27" shape-rendering="crispEdges">
<metadata>Made with Pixels to Svg https://codepen.io/shshaw/pen/XbxvNj</metadata>
<path stroke="#212528" d="M2 0h23M1 1h2M24 1h2M0 2h2M25 2h2M0 3h1M26 3h1M0 4h1M26 4h1M0 5h1M26 5h1M0 6h1M26 6h1M0 7h1M26 7h1M0 8h1M26 8h1M0 9h1M26 9h1M0 10h1M26 10h1M0 11h1M26 11h1M0 12h1M26 12h1M0 13h1M26 13h1M0 14h1M26 14h1M0 15h1M26 15h1M0 16h1M26 16h1M0 17h1M26 17h1M0 18h1M26 18h1M0 19h1M26 19h1M0 20h1M26 20h1M0 21h1M26 21h1M0 22h1M26 22h1M0 23h1M26 23h1M0 24h2M25 24h2M1 25h2M24 25h2M2 26h23" />
<path stroke="#07080a" d="M3 1h21M2 2h2M23 2h2M1 3h2M6 3h15M24 3h2M1 4h1M5 4h2M20 4h2M25 4h1M1 5h1M4 5h2M21 5h2M25 5h1M1 6h1M4 6h1M22 6h1M25 6h1M1 7h1M4 7h1M22 7h1M25 7h1M1 8h1M4 8h1M22 8h1M25 8h1M1 9h1M4 9h2M21 9h2M25 9h1M1 10h1M4 10h2M21 10h2M25 10h1M1 11h1M4 11h1M22 11h1M25 11h1M1 12h1M4 12h1M22 12h1M25 12h1M1 13h1M4 13h1M22 13h1M25 13h1M1 14h1M4 14h1M22 14h1M25 14h1M1 15h1M4 15h1M22 15h1M25 15h1M1 16h1M4 16h1M13 16h1M22 16h1M25 16h1M1 17h1M4 17h1M13 17h1M22 17h1M25 17h1M1 18h1M4 18h1M13 18h1M22 18h1M25 18h1M1 19h1M4 19h2M13 19h1M21 19h2M25 19h1M1 20h1M5 20h1M13 20h1M21 20h1M25 20h1M1 21h1M5 21h2M12 21h3M20 21h2M25 21h1M1 22h1M6 22h2M11 22h2M14 22h2M19 22h2M25 22h1M1 23h2M7 23h5M15 23h5M24 23h2M2 24h2M23 24h2M3 25h21" />
<path stroke="rgba(10,14,16,0.5019607843137255)" d="M4 2h2M21 2h2M3 3h2M22 3h2M2 4h2M23 4h2M2 5h1M24 5h1M2 21h1M24 21h1M2 22h1M24 22h1M3 23h1M23 23h1M4 24h2M21 24h2" />
<path stroke="rgba(12,16,16,0.5019607843137255)" d="M6 2h6M15 2h6M5 3h1M21 3h1M4 4h1M22 4h1M3 5h1M23 5h1M2 6h2M23 6h2M2 7h2M23 7h2M2 8h2M23 8h2M2 9h1M24 9h1M2 10h1M24 10h1M24 11h1M2 16h1M24 16h1M2 17h1M24 17h1M2 18h1M24 18h1M2 19h2M23 19h2M2 20h3M22 20h3M3 21h2M22 21h2M3 22h3M21 22h3M4 23h3M20 23h3M6 24h5M16 24h5" />
<path stroke="rgba(12,16,18,0.5019607843137255)" d="M12 2h3M3 9h1M23 9h1M3 10h1M23 10h1M2 11h2M23 11h1M2 12h2M23 12h2M2 13h2M23 13h2M2 14h2M23 14h2M2 15h2M23 15h2M3 16h1M23 16h1M3 17h1M23 17h1M3 18h1M23 18h1M12 23h3M11 24h5" />
<path stroke="#272727" d="M7 4h13M6 5h1M20 5h1M5 6h1M8 6h11M21 6h1M5 7h1M9 7h9M21 7h1M5 8h1M21 8h1M6 9h1M20 9h1M6 10h1M20 10h1M5 11h1M21 11h1M5 12h1M21 12h1M5 13h1M21 13h1M5 14h1M21 14h1M5 15h1M12 15h3M21 15h1M5 16h1M12 16h1M14 16h1M21 16h1M5 17h1M12 17h1M14 17h1M21 17h1M5 18h1M12 18h1M14 18h1M21 18h1M6 19h1M12 19h1M14 19h1M20 19h1M6 20h1M12 20h1M14 20h1M20 20h1M7 21h1M11 21h1M15 21h1M19 21h1M8 22h3M16 22h3" />
<path stroke="#858585" d="M7 5h13M6 6h2M19 6h2M6 7h2M19 7h2M7 8h13M10 9h7M10 10h7M7 11h2M11 11h5M18 11h2M6 12h4M11 12h5M17 12h4M6 13h4M12 13h3M17 13h4M6 14h5M16 14h5M7 15h5M15 15h5M6 16h1M10 16h2M15 16h2M20 16h1M6 17h3M18 17h3M6 18h6M15 18h6M7 19h5M15 19h5M7 20h5M15 20h5M8 21h2M17 21h2" />
<path stroke="#5d5d5d" d="M8 7h1M18 7h1M6 8h1M20 8h1M7 9h3M17 9h3M7 10h3M17 10h3M6 11h1M9 11h2M16 11h2M20 11h1M10 12h1M16 12h1M10 13h2M15 13h2M11 14h5M6 15h1M20 15h1M7 16h3M17 16h3M9 17h3M15 17h3M10 21h1M16 21h1" />
<path stroke="rgba(14,18,18,0.5019607843137255)" d="M13 22h1" />
</svg>