<svg xmlns="http://www.w3.org/2000/svg" viewBox="0 -0.5 27 27" shape-rendering="crispEdges">
<metadata>Made with Pixels to Svg https://codepen.io/shshaw/pen/XbxvNj</metadata>
<path stroke="#212528" d="M2 0h23M1 1h2M24 1h2M0 2h2M25 2h2M0 3h1M26 3h1M0 4h1M26 4h1M0 5h1M26 5h1M0 6h1M26 6h1M0 7h1M26 7h1M0 8h1M26 8h1M0 9h1M26 9h1M0 10h1M26 10h1M0 11h1M26 11h1M0 12h1M26 12h1M0 13h1M26 13h1M0 14h1M26 14h1M0 15h1M26 15h1M0 16h1M26 16h1M0 17h1M26 17h1M0 18h1M26 18h1M0 19h1M26 19h1M0 20h1M26 20h1M0 21h1M26 21h1M0 22h1M26 22h1M0 23h1M26 23h1M0 24h2M25 24h2M1 25h2M24 25h2M2 26h23" />
<path stroke="#07080a" d="M3 1h21M2 2h2M23 2h2M1 3h2M24 3h2M1 4h1M5 4h5M25 4h1M1 5h1M4 5h2M9 5h2M25 5h1M1 6h1M3 6h2M10 6h2M25 6h1M1 7h3M11 7h2M25 7h1M1 8h2M12 8h2M25 8h1M1 9h2M13 9h2M25 9h1M1 10h2M14 10h7M25 10h1M1 11h2M20 11h2M25 11h1M1 12h3M21 12h2M25 12h1M1 13h1M3 13h2M22 13h1M25 13h1M1 14h1M4 14h3M22 14h1M25 14h1M1 15h1M6 15h3M20 15h3M25 15h1M1 16h1M8 16h3M21 16h2M25 16h1M1 17h1M10 17h2M22 17h2M25 17h1M1 18h1M11 18h1M23 18h1M25 18h1M1 19h1M11 19h2M23 19h1M25 19h1M1 20h1M12 20h2M23 20h1M25 20h1M1 21h1M13 21h2M22 21h2M25 21h1M1 22h1M14 22h3M21 22h2M25 22h1M1 23h2M16 23h6M24 23h2M2 24h2M23 24h2M3 25h21" />
<path stroke="rgba(10,14,16,0.5019607843137255)" d="M4 2h2M21 2h2M3 3h2M22 3h2M2 4h2M23 4h2M2 5h1M24 5h1M2 21h1M24 21h1M2 22h1M24 22h1M3 23h1M23 23h1M4 24h2M21 24h2" />
<path stroke="rgba(12,16,16,0.5019607843137255)" d="M6 2h6M15 2h6M5 3h4M18 3h4M4 4h1M20 4h3M3 5h1M21 5h3M2 6h1M22 6h3M23 7h2M23 8h2M24 9h1M24 10h1M24 11h1M2 16h1M24 16h1M2 17h1M24 17h1M2 18h1M24 18h1M2 19h2M24 19h1M2 20h3M24 20h1M3 21h2M3 22h4M23 22h1M4 23h4M22 23h1M6 24h5M16 24h5" />
<path stroke="rgba(12,16,18,0.5019607843137255)" d="M12 2h3M9 3h9M10 4h2M15 4h5M18 5h3M19 6h3M20 7h3M21 8h2M22 9h2M22 10h2M22 11h2M23 12h2M2 13h1M23 13h2M2 14h2M23 14h2M2 15h2M23 15h2M3 16h2M23 16h1M3 17h2M3 18h3M4 19h2M5 20h2M5 21h4M7 22h4M8 23h8M11 24h5" />
<path stroke="rgba(14,18,18,0.5019607843137255)" d="M12 4h3M11 5h7M15 6h4M17 7h3M19 8h2M19 9h3M21 10h1M4 15h2M5 16h2M5 17h2M6 18h2M6 19h3M7 20h4M9 21h4M11 22h3" />
<path stroke="#391f21" d="M6 5h3M5 6h1M9 6h1M4 7h1M10 7h1M3 8h1M11 8h1M3 9h1M12 9h1M3 10h1M13 10h1M3 11h1M14 11h6M4 12h1M20 12h1M5 13h2M21 13h1M7 14h2M18 14h4M9 15h2M19 15h1M11 16h1M20 16h1M12 17h1M21 17h1M12 18h1M22 18h1M13 19h1M22 19h1M14 20h1M22 20h1M15 21h2M21 21h1M17 22h4" />
<path stroke="#e07438" d="M6 6h3M5 7h5M4 8h7M4 9h8M5 10h7M6 11h7M8 12h5M15 12h4M10 13h2M13 13h8M12 14h5M12 15h7M12 16h8M13 17h5M19 17h2M14 18h2M17 18h2M20 18h2M15 19h2M18 19h2M21 19h1M16 20h2M19 20h2M17 21h2M20 21h1" />
<path stroke="rgba(14,18,20,0.5019607843137255)" d="M12 6h3M13 7h4M14 8h5M16 9h3M7 16h1M7 17h3M8 18h3M9 19h2M11 20h1" />
<path stroke="rgba(16,20,20,0.5019607843137255)" d="M15 9h1" />
<path stroke="#8a4836" d="M4 10h1M12 10h1M4 11h2M13 11h1M5 12h3M13 12h2M19 12h1M7 13h3M12 13h1M9 14h3M17 14h1M11 15h1M18 17h1M13 18h1M16 18h1M19 18h1M14 19h1M17 19h1M20 19h1M15 20h1M18 20h1M21 20h1M19 21h1" />
</svg>